HIERARCHY
ROOT root
{
	OFFSET 0.000000 0.000000 0.000000
	CHANNELS 6 Xposition Yposition Zposition Zrotation Yrotation Xrotation
	JOINT lhip
	{
		OFFSET 0.058581 -0.082280 -0.017664
		CHANNELS 3 Zrotation Yrotation Xrotation
		JOINT lknee
		{
			OFFSET 0.043451 -0.386469 0.008037
			CHANNELS 3 Zrotation Yrotation Xrotation
			JOINT lankle
			{
				OFFSET -0.014790 -0.426874 -0.037428
				CHANNELS 3 Zrotation Yrotation Xrotation
				JOINT ltoe
				{
					OFFSET 0.041054 -0.060286 0.122042
					CHANNELS 3 Zrotation Yrotation Xrotation
					End Site
					{
						OFFSET 0.000000 0.000000 0.000000
					}
				}
			}
		}
	}
	JOINT rhip
	{
		OFFSET -0.060310 -0.090513 -0.013543
		CHANNELS 3 Zrotation Yrotation Xrotation
		JOINT rknee
		{
			OFFSET -0.043257 -0.383688 -0.004843
			CHANNELS 3 Zrotation Yrotation Xrotation
			JOINT rankle
			{
				OFFSET 0.019056 -0.420046 -0.034562
				CHANNELS 3 Zrotation Yrotation Xrotation
				JOINT rtoe
				{
					OFFSET -0.034840 -0.062106 0.130323
					CHANNELS 3 Zrotation Yrotation Xrotation
					End Site
					{
						OFFSET 0.000000 0.000000 0.000000
					}
				}
			}
		}
	}
	JOINT lowerback
	{
		OFFSET 0.004439 0.124404 -0.038385
		CHANNELS 3 Zrotation Yrotation Xrotation
		JOINT upperback
		{
			OFFSET 0.004488 0.137956 0.026820
			CHANNELS 3 Zrotation Yrotation Xrotation
			JOINT chest
			{
				OFFSET -0.002265 0.056032 0.002855
				CHANNELS 3 Zrotation Yrotation Xrotation
				JOINT lowerneck
				{
					OFFSET -0.013390 0.211636 -0.033468
					CHANNELS 3 Zrotation Yrotation Xrotation
					JOINT upperneck
					{
						OFFSET 0.010113 0.088937 0.050410
						CHANNELS 3 Zrotation Yrotation Xrotation
						End Site
						{
							OFFSET 0.000000 0.000000 0.000000
						}
					}
				}
				JOINT lclavicle
				{
					OFFSET 0.071702 0.114000 -0.018898
					CHANNELS 3 Zrotation Yrotation Xrotation
					JOINT lshoulder
					{
						OFFSET 0.122921 0.045205 -0.019046
						CHANNELS 3 Zrotation Yrotation Xrotation
						JOINT lelbow
						{
							OFFSET 0.255332 -0.015649 -0.022946
							CHANNELS 3 Zrotation Yrotation Xrotation
							JOINT lwrist
							{
								OFFSET 0.265709 0.012698 -0.007375
								CHANNELS 3 Zrotation Yrotation Xrotation
								End Site
								{
									OFFSET 0.000000 0.000000 0.000000
								}
							}
						}
					}
				}
				JOINT rclavicle
				{
					OFFSET -0.082954 0.112472 -0.023707
					CHANNELS 3 Zrotation Yrotation Xrotation
					JOINT rshoulder
					{
						OFFSET -0.113228 0.046853 -0.008472
						CHANNELS 3 Zrotation Yrotation Xrotation
						JOINT relbow
						{
							OFFSET -0.260127 -0.014369 -0.031269
							CHANNELS 3 Zrotation Yrotation Xrotation
							JOINT rwrist
							{
								OFFSET -0.269108 0.006794 -0.006027
								CHANNELS 3 Zrotation Yrotation Xrotation
								End Site
								{
									OFFSET 0.000000 0.000000 0.000000
								}
							}
						}
					}
				}
			}
		}
	}
}
MOTION
Frames: 13
Frame Time: 0.033333
-0.248386 3.032899 0.990489 -0.785788 0.364259 85.110304 2.625161 6.429475 10.716873 -3.634780 -1.421296 -2.090044 4.135384 11.886964 -13.443686 0.000000 -0.000000 0.000000 -2.268006 -3.987833 -4.127943 -1.534609 -7.168335 24.515836 4.787824 -11.971856 -13.963645 0.000000 -0.000000 0.000000 -0.006150 -1.681296 6.285144 -0.449987 -1.063597 5.573061 -1.170696 -1.834338 2.766826 4.210443 1.342189 -4.863172 -0.402494 1.696332 1.563123 -30.094191 4.675943 1.377937 -54.842819 -4.962051 8.147514 10.767707 -40.797071 5.611616 7.124221 -5.210815 -2.849572 26.274708 0.446150 1.534598 56.644531 3.253887 15.587086 -10.443589 35.630886 -0.198240 1.903757 7.422162 -3.711688 
-0.249169 3.030984 0.990507 -0.755193 0.373759 84.998101 2.735694 6.289166 11.117535 -3.633706 -1.473394 -2.432777 4.081012 11.885426 -13.391886 0.000000 -0.000000 0.000000 -2.130368 -3.704567 -3.657810 -1.553088 -7.196907 24.146459 4.833894 -12.219795 -14.027074 0.000000 -0.000000 0.000000 -0.067385 -1.872911 6.066883 -0.340724 -1.089327 5.647147 -1.087418 -1.863460 2.750575 4.317603 1.471000 -4.874956 -0.481710 1.792959 1.741510 -30.187736 4.583696 1.239092 -54.862288 -5.666485 8.617430 10.473367 -42.598557 6.125989 6.713853 -5.618974 -3.230531 26.345023 0.388242 1.581919 56.308051 3.242783 15.661944 -10.505919 35.461798 -0.241122 2.082109 7.444756 -3.473833 
-0.249939 3.029873 0.990488 -0.639827 0.413211 84.924435 2.856753 6.065637 11.271311 -3.636848 -1.466366 -2.485147 4.037911 11.806399 -13.440405 0.000000 -0.000000 0.000000 -1.993230 -3.517192 -3.410755 -1.572022 -7.315868 24.001855 4.847559 -12.390058 -14.104513 0.000000 -0.000000 0.000000 0.009486 -2.079390 6.015008 -0.287004 -1.232674 5.636896 -1.109697 -1.963699 2.754882 4.379256 1.607407 -4.958648 -0.528426 1.959717 1.772022 -30.207772 4.302296 1.131937 -54.892660 -6.287449 9.072330 10.224708 -43.835129 6.753286 6.356116 -6.032544 -3.381042 26.256882 0.390170 1.511186 56.297596 3.201023 15.690237 -10.680714 35.099888 -0.243197 2.264279 7.498293 -3.189637 
-0.250972 3.029433 0.990581 -0.709974 0.412024 84.990131 2.948867 5.950870 11.285511 -3.672197 -1.383161 -2.583748 4.020204 11.716407 -13.427371 0.000000 -0.000000 0.000000 -1.918767 -3.445041 -3.452520 -1.566504 -7.391677 23.981578 4.843828 -12.331016 -14.130396 0.000000 -0.000000 0.000000 0.087146 -2.150774 5.892433 -0.279011 -1.339611 5.710486 -1.147340 -2.068291 2.663383 4.359199 1.734384 -4.955311 -0.472919 2.147327 1.650567 -30.165355 3.778943 1.113805 -54.943238 -6.780846 9.510043 10.045908 -44.500515 7.250080 6.144487 -6.212779 -3.329788 26.116133 0.472371 1.565884 56.448379 3.119491 15.561244 -10.941112 34.718034 -0.532670 2.460145 7.453481 -3.270458 
-0.252445 3.029648 0.990632 -0.912673 0.337708 85.134960 2.983878 5.985417 11.270461 -3.719409 -1.275431 -2.830422 4.006145 11.655960 -13.299159 0.000000 -0.000000 0.000000 -1.886570 -3.455550 -3.737742 -1.585060 -7.360770 24.128136 4.850912 -12.185302 -14.169961 0.000000 -0.000000 0.000000 0.051139 -2.141547 5.849104 -0.311625 -1.372202 5.726926 -1.164441 -2.118235 2.566170 4.353547 1.914666 -5.074139 -0.351190 2.257392 1.582478 -30.077314 3.223919 1.064272 -54.981533 -7.265526 9.880126 9.713865 -44.704470 7.713181 6.095847 -6.292339 -3.269633 26.018596 0.558794 1.647971 56.585553 2.978012 15.474199 -11.072542 34.416690 -0.763442 2.552290 7.312325 -3.446287 
-0.253953 3.030227 0.990685 -1.097101 0.215883 85.233919 2.987210 6.096420 11.283867 -3.768518 -1.209577 -3.078722 4.002345 11.580672 -13.192085 0.000000 -0.000000 0.000000 -1.889650 -3.568919 -3.989733 -1.635496 -7.296482 24.278981 4.865403 -12.022289 -14.237919 0.000000 -0.000000 0.000000 -0.028546 -2.119634 6.002517 -0.362675 -1.414187 5.657151 -1.164134 -2.161232 2.490406 4.286536 2.042794 -5.258271 -0.250638 2.349752 1.501657 -30.024178 2.756764 0.977534 -54.931986 -7.719187 10.140726 9.249983 -44.760833 8.256225 5.892538 -6.437185 -3.294855 25.953025 0.620167 1.690533 56.600380 2.744419 15.403741 -11.082236 34.149754 -0.803807 2.748162 7.283621 -3.428313 
-0.255474 3.030986 0.990520 -1.154407 0.109698 85.349390 3.002435 6.123446 11.147708 -3.815314 -1.181936 -3.109512 4.000972 11.514790 -13.160074 0.000000 -0.000000 0.000000 -1.873445 -3.622453 -4.299240 -1.676876 -7.241933 24.519232 4.878906 -12.003047 -14.328029 0.000000 -0.000000 0.000000 -0.079962 -2.143609 6.181157 -0.392675 -1.483850 5.585960 -1.172522 -2.223003 2.446061 4.156746 2.121091 -5.430209 -0.193507 2.392298 1.351843 -29.965402 2.313935 0.939474 -54.882200 -8.126064 10.384827 8.912565 -44.802313 8.723111 5.584411 -6.500780 -3.410312 25.863696 0.665919 1.722180 56.596473 2.477095 15.352061 -11.098704 33.868671 -0.740252 2.955722 7.249817 -3.295117 
-0.257134 3.031194 0.990343 -1.236351 0.021769 85.448497 3.041480 6.095782 11.085387 -3.868703 -1.159991 -3.149115 3.960105 11.511981 -13.169221 0.000000 -0.000000 0.000000 -1.806452 -3.424125 -4.627163 -1.709188 -7.187489 24.882787 4.869815 -12.157652 -14.498942 0.000000 -0.000000 0.000000 -0.124306 -2.223163 6.257198 -0.404390 -1.472360 5.648555 -1.183923 -2.254228 2.405637 4.017834 2.181466 -5.536226 -0.172963 2.378543 1.143338 -29.949509 1.939987 0.909266 -54.830444 -8.444164 10.620577 8.777348 -44.765540 9.100592 5.292918 -6.540838 -3.375622 25.851913 0.692316 1.777172 56.529771 2.211347 15.263789 -11.129014 33.447208 -0.680305 3.103411 7.200915 -3.176948 
-0.259054 3.031080 0.990165 -1.273202 -0.043964 85.554400 3.140528 6.005248 11.059652 -3.955195 -1.122572 -3.216793 3.885417 11.459971 -13.206628 0.000000 -0.000000 0.000000 -1.704784 -3.142192 -4.938736 -1.715319 -7.171956 25.275618 4.830357 -12.361117 -14.776114 0.000000 -0.000000 0.000000 -0.184740 -2.308259 6.273112 -0.382022 -1.475440 5.746471 -1.177486 -2.278021 2.366494 3.922639 2.266862 -5.539918 -0.187732 2.399990 0.972495 -29.919883 1.607189 0.895663 -54.871057 -8.691611 10.848923 8.787032 -44.497954 9.311150 5.280136 -6.503457 -3.282198 25.847086 0.723010 1.859546 56.484565 1.958381 15.167288 -11.158625 32.849032 -0.674995 3.140809 7.153545 -3.195310 
-0.261303 3.030401 0.989843 -1.422784 -0.187429 85.624858 3.209195 6.062617 11.229058 -4.056092 -1.159006 -3.475605 3.794077 11.425805 -13.239232 0.000000 -0.000000 0.000000 -1.664486 -2.900779 -5.268321 -1.708052 -7.002554 25.837289 4.814319 -12.455761 -15.280263 0.000000 -0.000000 0.000000 -0.357753 -2.362580 6.242650 -0.378563 -1.424546 5.907227 -1.159258 -2.267299 2.346650 3.901884 2.469295 -5.498276 -0.165314 2.464856 0.850902 -29.884221 1.367918 0.858823 -54.896318 -8.876822 11.019935 8.801975 -44.126548 9.349133 5.382996 -6.491620 -3.265702 25.915032 0.726293 1.937203 56.443536 1.748848 15.075656 -11.167844 32.147473 -0.707560 3.219915 7.098526 -3.145795 
-0.264011 3.029852 0.988954 -1.564236 -0.403403 85.684536 3.238819 6.166510 11.334939 -4.173245 -1.225283 -3.617263 3.741963 11.375205 -13.407167 0.000000 -0.000000 0.000000 -1.600921 -2.622356 -5.972783 -1.816055 -6.705035 27.080197 4.826384 -12.642160 -16.242031 0.000000 -0.000000 0.000000 -0.673726 -2.431527 6.431894 -0.366964 -1.374229 5.897991 -1.129539 -2.280540 2.350857 3.995252 2.771337 -5.546352 -0.126339 2.514593 0.814019 -29.768840 1.288099 0.844777 -54.947028 -8.911549 11.105004 8.946156 -43.921709 9.295922 5.413555 -6.448122 -3.331072 26.021177 0.717294 1.939934 56.459249 1.573844 15.055060 -11.179874 31.492485 -0.701988 3.377901 7.025047 -2.998760 
-0.267269 3.029415 0.987204 -1.625115 -0.690675 85.632490 3.284540 6.203391 11.315074 -4.372905 -1.335952 -3.294014 3.666370 11.321953 -13.848264 0.000000 -0.000000 0.000000 -1.552343 -2.327048 -6.926579 -1.996288 -6.421286 28.963923 4.866177 -13.072945 -17.660322 0.000000 -0.000000 0.000000 -1.113364 -2.512785 6.988524 -0.352395 -1.390099 5.695535 -1.094323 -2.330000 2.432632 4.197953 3.137565 -5.733316 -0.099015 2.597815 0.745002 -29.622407 1.385077 0.849270 -55.009756 -8.784472 11.053431 9.205905 -43.865974 9.067515 5.638464 -6.381063 -3.552185 26.173970 0.742159 1.791799 56.495097 1.403608 15.140805 -11.120980 30.953513 -0.691472 3.409412 6.965634 -2.852104 
-0.271092 3.027935 0.985079 -1.900485 -1.116805 85.276410 3.266424 6.302660 11.492655 -4.602264 -1.391340 -2.482277 3.530606 11.340311 -14.631028 0.000000 -0.000000 0.000000 -1.638121 -2.076277 -7.512597 -2.159778 -6.081806 30.896836 4.876629 -13.424459 -19.236777 0.000000 -0.000000 0.000000 -1.648011 -2.483808 7.816692 -0.422452 -1.344827 5.598866 -1.021424 -2.288489 2.573496 4.350959 3.492835 -5.976075 -0.007837 2.670618 0.384807 -29.483530 1.529754 0.794510 -55.179265 -8.473013 10.825444 9.556222 -43.395107 8.375860 6.389899 -6.317180 -4.185655 26.462354 0.836030 1.606940 56.436440 1.314587 15.205912 -10.926165 30.516518 -0.662988 3.244867 6.951386 -2.669314 
